HIERARCHY
ROOT Hips
{
  OFFSET 51.9164 95.6768 10.738
  CHANNELS 6 Xposition Yposition Zposition Zrotation Xrotation Yrotation
  JOINT spine
  {
    OFFSET 0 7.96568 0.458067
    CHANNELS 3 Zrotation Xrotation Yrotation
    JOINT spine1
    {
      OFFSET 0 10.2431 0
      CHANNELS 3 Zrotation Xrotation Yrotation
      JOINT spine2
      {
        OFFSET 0 9.81475 0
        CHANNELS 3 Zrotation Xrotation Yrotation
        JOINT Neck
        {
          OFFSET 0 25.1986 1.20138
          CHANNELS 3 Zrotation Xrotation Yrotation
          JOINT Head
          {
            OFFSET 0 7.61315 0
            CHANNELS 3 Zrotation Xrotation Yrotation
            End Site
            {
              OFFSET 0 18.4281 -6.07733
            }
          }
        }
        JOINT RightShoulder
        {
          OFFSET -4.1327 10.5992 -0.575451
          CHANNELS 3 Zrotation Xrotation Yrotation
          JOINT RightArm
          {
            OFFSET 0 13.9018 0
            CHANNELS 3 Zrotation Xrotation Yrotation
            JOINT RightArmRoll
            {
              OFFSET 0 7.01789 0
              CHANNELS 3 Zrotation Xrotation Yrotation
              JOINT RightForeArm
              {
                OFFSET 0 20.4406 0
                CHANNELS 3 Zrotation Xrotation Yrotation
                JOINT RightForeArmRoll
                {
                  OFFSET 0 7.87516 0
                  CHANNELS 3 Zrotation Xrotation Yrotation
                  JOINT RightHand
                  {
                    OFFSET 0 15.8037 0
                    CHANNELS 3 Zrotation Xrotation Yrotation
                    End Site
                    {
                      OFFSET 0 0 0
                    }
                  }
                }
              }
            }
          }
        }
        JOINT LeftShoulder
        {
          OFFSET 4.1327 10.5992 -0.575451
          CHANNELS 3 Zrotation Xrotation Yrotation
          JOINT LeftArm
          {
            OFFSET 0 13.9018 0
            CHANNELS 3 Zrotation Xrotation Yrotation
            JOINT LeftArmRoll
            {
              OFFSET 0 7.01788 0
              CHANNELS 3 Zrotation Xrotation Yrotation
              JOINT LeftForeArm
              {
                OFFSET 0 20.4406 0
                CHANNELS 3 Zrotation Xrotation Yrotation
                JOINT LeftForeArmRoll
                {
                  OFFSET 0 7.87516 0
                  CHANNELS 3 Zrotation Xrotation Yrotation
                  JOINT LeftHand
                  {
                    OFFSET 0 15.8037 0
                    CHANNELS 3 Zrotation Xrotation Yrotation
                    End Site
                    {
                      OFFSET 0 0 0
                    }
                  }
                }
              }
            }
          }
        }
      }
    }
  }
  JOINT RightUpLeg
  {
    OFFSET -7.06048 -1.2947 -1.0861
    CHANNELS 3 Zrotation Xrotation Yrotation
    JOINT RightUpLegRoll
    {
      OFFSET 0 18.5308 0
      CHANNELS 3 Zrotation Xrotation Yrotation
      JOINT RightLeg
      {
        OFFSET 0 -22.9476 0
        CHANNELS 3 Zrotation Xrotation Yrotation
        JOINT RightLegRoll
        {
          OFFSET 0 23.0226 0
          CHANNELS 3 Zrotation Xrotation Yrotation
          JOINT RightFoot
          {
            OFFSET 0 19.1625 0
            CHANNELS 3 Zrotation Xrotation Yrotation
            JOINT RightToeBase
            {
              OFFSET 0 16.0188 0
              CHANNELS 3 Zrotation Xrotation Yrotation
              End Site
              {
                OFFSET 0.00678979 7.75782 -0.894206
              }
            }
          }
        }
      }
    }
  }
  JOINT LeftUpLeg
  {
    OFFSET 7.06048 -1.2947 -1.0861
    CHANNELS 3 Zrotation Xrotation Yrotation
    JOINT LeftUpLegRoll
    {
      OFFSET 0 18.5309 0
      CHANNELS 3 Zrotation Xrotation Yrotation
      JOINT LeftLeg
      {
        OFFSET 0 22.9475 0
        CHANNELS 3 Zrotation Xrotation Yrotation
        JOINT LeftLegRoll
        {
          OFFSET 0 23.2355 0
          CHANNELS 3 Zrotation Xrotation Yrotation
          JOINT LeftFoot
          {
            OFFSET 0 18.9496 0
            CHANNELS 3 Zrotation Xrotation Yrotation
            JOINT LeftToeBase
            {
              OFFSET 0 16.0188 0
              CHANNELS 3 Zrotation Xrotation Yrotation
              End Site
              {
                OFFSET -0.0304289 7.75781 -0.894207
              }
            }
          }
        }
      }
    }
  }
}
MOTION
Frames: 9
Frame Time: 0.00208333
51.2246 95.7386 10.67 -1.11991 -5.66049 3.84022 0.341061 -1.97844 0.231191 0.679544 0.0478678 0.424188 0.674627 1.69285 0.413078 -3.11925 33.563 -0.763742 5.41917 -5.13863 -1.32661 61.4145 2.24165 0.968871 121.299 46.7811 -44.1259 -1.76556e-031 6.36111e-015 1.59028e-015 -144.356 85.4943 136.284 -1.87045e-008 1.09089e-006 -3.00299 8.02993 -4.95139 0.69764 -63.4598 -1.15334 1.22444 -121.959 51.5575 51.4631 -3.18055e-015 3.18055e-015 1.59028e-015 70.1317 89.069 -63.2824 1.07926e-005 -8.80415e-007 3.00503 -8.03049 -4.95135 -0.697609 177.969 -8.02256 -2.84034 180 7.01499e-015 178.732 177.889 3.21193 179.605 -1.01451e-006 -3.05325e-006 0.0362689 -18.9399 68.0775 19.6032 8.13748 25.2553 -3.45674 -171.446 -2.2901 -0.946415 4.54188e-006 -4.6773e-006 -1.10234 -1.61417 -7.78562 0.274758 -3.75119e-006 -2.08692e-006 0.00177864 17.4463 68.6629 -20.0608 -8.13649 25.2327 3.48774 
51.2302 95.7408 10.666 -1.11542 -5.66764 3.82928 0.339916 -1.9752 0.231793 0.677193 0.0536382 0.425435 0.672261 1.69862 0.414367 -3.12252 33.5424 -0.764039 5.42504 -5.12282 -1.32768 61.3755 2.23861 0.972821 121.199 46.7971 -43.983 -4.41391e-031 -3.18055e-015 -7.95139e-015 -144.217 85.5136 136.167 -1.87045e-008 1.09089e-006 -3.00299 8.02993 -4.95139 0.69764 -63.4502 -1.1599 1.22709 -121.71 51.6041 51.2603 6.36111e-015 3.18055e-015 6.36111e-015 69.9868 89.0691 -63.139 1.07926e-005 -8.80415e-007 3.00503 -8.03049 -4.95135 -0.697609 177.96 -8.02325 -2.83168 180 7.01499e-015 178.732 177.883 3.21429 179.605 -1.01451e-006 -3.05325e-006 0.0362694 -18.9395 68.077 19.6028 8.13741 25.2543 -3.45805 -171.452 -2.30024 -0.942761 4.54188e-006 -4.6773e-006 -1.10298 -1.6133 -7.77894 0.274562 -3.75119e-006 -2.08692e-006 0.00181342 17.4469 68.6596 -20.0578 -8.13649 25.2327 3.48774 
51.228 95.7371 10.6633 -1.11124 -5.67686 3.81864 0.33866 -1.97144 0.232695 0.674768 0.0606663 0.4274 0.669814 1.70565 0.416372 -3.11873 33.52 -0.768747 5.42559 -5.1067 -1.33087 61.3411 2.23412 0.975255 121.084 46.8154 -43.8324 6.36111e-015 -6.36111e-015 -1.43125e-014 -144.061 85.5285 136.03 -1.87045e-008 1.09089e-006 -3.00299 8.02993 -4.95139 0.69764 -63.4329 -1.16487 1.22805 -121.463 51.6471 51.0473 -3.18055e-015 0 7.95139e-015 69.9015 89.0679 -63.0566 1.07926e-005 -8.80415e-007 3.00503 -8.03049 -4.95135 -0.697609 177.952 -8.02676 -2.82349 180 7.01499e-015 178.732 177.877 3.21571 179.606 -1.01451e-006 -3.05325e-006 0.0362699 -18.939 68.0765 19.6023 8.13734 25.2532 -3.45953 -171.458 -2.31189 -0.939381 4.54188e-006 -4.6773e-006 -1.10361 -1.61223 -7.77326 0.274358 -3.75119e-006 -2.08692e-006 0.00184171 17.4476 68.6564 -20.0549 -8.13649 25.2327 3.48774 
51.232 95.7416 10.6654 -1.10725 -5.68859 3.80795 0.337353 -1.96698 0.233966 0.672382 0.0692805 0.430213 0.667396 1.71427 0.419222 -3.11073 33.4954 -0.77669 5.42443 -5.09265 -1.33555 61.3092 2.229 0.976949 120.956 46.8357 -43.6741 3.53113e-031 -1.27222e-014 1.59028e-015 -143.884 85.54 135.87 -1.87045e-008 1.09089e-006 -3.00299 8.02993 -4.95139 0.69764 -63.4096 -1.16885 1.22783 -121.22 51.6879 50.8275 -9.54166e-015 -3.18055e-015 -7.95139e-015 69.8164 89.0656 -62.9756 1.07926e-005 -8.80415e-007 3.00503 -8.03049 -4.95135 -0.697609 177.945 -8.03321 -2.81542 180 7.01499e-015 178.732 177.871 3.21645 179.606 -1.01451e-006 -3.05325e-006 0.0362705 -18.9386 68.0759 19.6019 8.13726 25.252 -3.46121 -171.464 -2.32553 -0.936212 4.54188e-006 -4.6773e-006 -1.10426 -1.61096 -7.7684 0.274133 -3.75119e-006 -2.08692e-006 0.00186153 17.4483 68.6532 -20.052 -8.13649 25.2327 3.48774 
51.2314 95.7443 10.6616 -1.10344 -5.70247 3.79719 0.336005 -1.9619 0.235556 0.670032 0.0792617 0.433756 0.665008 1.72425 0.4228 -3.09896 33.4688 -0.787481 5.42156 -5.08034 -1.34156 61.2796 2.22326 0.977937 120.816 46.8577 -43.5084 9.54166e-015 1.27222e-014 -0 -143.69 85.548 135.692 -1.87045e-008 1.09089e-006 -3.00299 8.02993 -4.95139 0.69764 -63.3811 -1.172 1.22659 -120.979 51.7265 50.6006 3.18055e-015 -1.90833e-014 1.27222e-014 69.764 89.0624 -62.9283 1.07926e-005 -8.80415e-007 3.00503 -8.03049 -4.95135 -0.697609 177.937 -8.04221 -2.80748 180 7.01499e-015 178.732 177.866 3.21652 179.606 -1.01451e-006 -3.05325e-006 0.036271 -18.9381 68.0753 19.6014 8.13717 25.2506 -3.46306 -171.47 -2.34085 -0.933218 4.54188e-006 -4.6773e-006 -1.10493 -1.6095 -7.76429 0.273892 -3.75119e-006 -2.08692e-006 0.00187364 17.4489 68.6499 -20.0491 -8.13649 25.2327 3.48774 
51.2235 95.7437 10.6476 -1.09981 -5.71812 3.78634 0.334624 -1.95632 0.237415 0.667719 0.090391 0.437914 0.662651 1.73538 0.426992 -3.08387 33.4405 -0.800729 5.41699 -5.06939 -1.34872 61.2522 2.21693 0.978252 120.664 46.8811 -43.3353 3.18055e-015 -1.27222e-014 -1.27222e-014 -143.485 85.5527 135.501 -1.87045e-008 1.09089e-006 -3.00299 8.02993 -4.95139 0.69764 -63.348 -1.17449 1.22451 -120.738 51.7632 50.3661 3.18055e-015 3.18055e-015 -0 69.7748 89.0584 -62.9448 1.07926e-005 -8.80415e-007 3.00503 -8.03049 -4.95135 -0.697609 177.931 -8.05334 -2.79967 180 7.01499e-015 178.732 177.86 3.216 179.606 -1.01451e-006 -3.05325e-006 0.0362715 -18.9376 68.0748 19.6009 8.13707 25.2492 -3.46504 -171.475 -2.35754 -0.930364 4.54188e-006 -4.6773e-006 -1.10562 -1.60788 -7.76085 0.273636 -3.75119e-006 -2.08692e-006 0.00187881 17.4497 68.6465 -20.0461 -8.13649 25.2327 3.48774 
51.2259 95.7446 10.6473 -1.09633 -5.73518 3.77539 0.333218 -1.95033 0.239491 0.665443 0.102449 0.442572 0.660325 1.74744 0.43168 -3.06588 33.4107 -0.816048 5.41072 -5.05946 -1.35686 61.2269 2.21001 0.977927 120.503 46.9057 -43.1552 -3.18055e-015 -3.18055e-015 -4.77083e-015 -143.274 85.5538 135.302 -1.87045e-008 1.09089e-006 -3.003 8.02993 -4.95139 0.69764 -63.3112 -1.17649 1.22176 -120.496 51.7981 50.1235 3.18055e-015 3.18055e-015 1.11319e-014 69.8806 89.0536 -63.0565 1.07926e-005 -8.80415e-007 3.00503 -8.03049 -4.95135 -0.697609 177.924 -8.0662 -2.792 180 7.01499e-015 178.732 177.856 3.21495 179.607 -1.01451e-006 -3.05325e-006 0.036272 -18.9371 68.0742 19.6004 8.13697 25.2477 -3.46713 -171.481 -2.3753 -0.927614 4.54188e-006 -4.6773e-006 -1.10632 -1.60611 -7.75799 0.273372 -3.75119e-006 -2.08692e-006 0.00187778 17.4504 68.6431 -20.0432 -8.13649 25.2327 3.48774 
51.2265 95.7457 10.6449 -1.093 -5.75326 3.76432 0.331797 -1.94402 0.241736 0.663202 0.115217 0.447613 0.658031 1.76021 0.436749 -3.04544 33.3795 -0.833049 5.40276 -5.05018 -1.36579 61.2034 2.20255 0.976995 120.331 46.9311 -42.9683 -6.36111e-015 -6.36111e-015 1.59028e-015 -143.062 85.5515 135.101 -1.87045e-008 1.09089e-006 -3.003 8.02993 -4.95139 0.69764 -63.2714 -1.17816 1.21852 -120.251 51.8311 49.8724 -9.54166e-015 1.59028e-014 -2.38542e-014 70.1098 89.048 -63.2916 1.07926e-005 -8.80415e-007 3.00503 -8.03049 -4.95135 -0.697609 177.918 -8.08039 -2.78449 180 7.01499e-015 178.732 177.851 3.21343 179.607 -1.01451e-006 -3.05325e-006 0.0362725 -18.9366 68.0736 19.5999 8.13686 25.2461 -3.46928 -171.486 -2.39381 -0.924934 4.54188e-006 -4.6773e-006 -1.10702 -1.6042 -7.75564 0.273101 -3.75119e-006 -2.08692e-006 0.00187132 17.4512 68.6398 -20.0403 -8.13649 25.2327 3.48774 
51.2268 95.7458 10.6401 -1.08981 -5.77199 3.75311 0.33037 -1.93749 0.244096 0.660997 0.128476 0.452921 0.65577 1.77347 0.442085 -3.02299 33.3472 -0.851346 5.39311 -5.04121 -1.37534 61.1817 2.19454 0.975489 120.151 46.9572 -42.7746 6.36111e-015 0 3.18055e-015 -142.853 85.5456 134.902 -1.87045e-008 1.09089e-006 -3.003 8.02993 -4.95139 0.69764 -63.2292 -1.17969 1.21495 -120.002 51.8624 49.6124 3.18055e-015 3.18055e-015 6.36111e-015 70.4924 89.0417 -63.6797 1.07926e-005 -8.80415e-007 3.00503 -8.03049 -4.95135 -0.697609 177.912 -8.09549 -2.77713 180 7.01499e-015 178.731 177.846 3.21149 179.607 -1.01451e-006 -3.05325e-006 0.0362731 -18.9361 68.0731 19.5994 8.13675 25.2445 -3.47148 -171.491 -2.41277 -0.922287 4.54188e-006 -4.6773e-006 -1.10772 -1.60218 -7.75371 0.272827 -3.75119e-006 -2.08692e-006 0.00186019 17.4521 68.6364 -20.0375 -8.13649 25.2327 3.48774 
